<?xml version="1.0" encoding="UTF-8" standalone="no"?>
<!-- Created with Inkscape (http://www.inkscape.org/) -->

<svg
   xmlns:dc="http://purl.org/dc/elements/1.1/"
   xmlns:cc="http://creativecommons.org/ns#"
   xmlns:rdf="http://www.w3.org/1999/02/22-rdf-syntax-ns#"
   xmlns:svg="http://www.w3.org/2000/svg"
   xmlns="http://www.w3.org/2000/svg"
   xmlns:sodipodi="http://sodipodi.sourceforge.net/DTD/sodipodi-0.dtd"
   xmlns:inkscape="http://www.inkscape.org/namespaces/inkscape"
   width="462.3125"
   height="265.19666"
   id="svg2"
   version="1.1"
   inkscape:version="0.48.4 r9939"
   sodipodi:docname="New document 1">
  <defs
     id="defs4" />
  <sodipodi:namedview
     id="base"
     pagecolor="#ffffff"
     bordercolor="#666666"
     borderopacity="1.0"
     inkscape:pageopacity="0.0"
     inkscape:pageshadow="2"
     inkscape:zoom="1.4"
     inkscape:cx="144.76452"
     inkscape:cy="196.41561"
     inkscape:document-units="px"
     inkscape:current-layer="layer1"
     showgrid="false"
     fit-margin-top="0"
     fit-margin-left="0"
     fit-margin-right="0"
     fit-margin-bottom="0"
     inkscape:window-width="1227"
     inkscape:window-height="759"
     inkscape:window-x="3038"
     inkscape:window-y="474"
     inkscape:window-maximized="0" />
  <metadata
     id="metadata7">
    <rdf:RDF>
      <cc:Work
         rdf:about="">
        <dc:format>image/svg+xml</dc:format>
        <dc:type
           rdf:resource="http://purl.org/dc/dcmitype/StillImage" />
        <dc:title></dc:title>
      </cc:Work>
    </rdf:RDF>
  </metadata>
  <g
     inkscape:label="Layer 1"
     inkscape:groupmode="layer"
     id="layer1"
     transform="translate(-109.43925,-341.16797)">
    <path
       style="fill:#ffffff;stroke:#000000;stroke-width:1px;stroke-linecap:butt;stroke-linejoin:miter;stroke-opacity:1"
       d="m 115.66247,396.2681 c 0.46904,-0.8856 10.10152,-1.51522 12.6269,-6.06091 2.52538,-4.54569 0.50508,-12.62691 9.09138,-15.65737 8.58629,-3.03045 39.39595,-4.04061 49.49747,-3.03045 10.10153,1.01015 157.07872,0 170.71578,0 13.63706,0 34.85026,-3.03046 44.95179,-7.07107 10.10152,-4.04061 15.65736,2.0203 17.17259,4.04061 1.51523,2.0203 17.1726,-3.03046 24.24366,1.01015 7.07107,4.04061 5.05077,10.10153 11.61676,10.6066 6.56599,0.50508 12.62691,2.02031 10.10152,5.05077 -2.52538,3.03045 -4.04061,9.59645 -6.56599,10.10152 -2.52538,0.50508 -1.01015,4.54569 0.50508,6.06092 1.51523,1.51523 6.06091,-2.02031 8.5863,-3.53554 2.52538,-1.51523 12.12183,1.01016 15.65736,2.52538 3.53553,1.51523 6.06091,3.53554 9.09137,2.02031 3.03046,-1.51523 2.52538,-4.04061 6.06092,-5.05076 3.53553,-1.01016 8.58629,-3.03046 12.6269,-5.55584 4.04061,-2.52538 12.12184,-16.16244 12.12184,-16.16244 0,0 -0.50508,-3.53554 -4.04062,-4.04061 -3.53553,-0.50508 -8.58629,0.50507 -8.58629,-2.02031 0,-2.52538 -3.0936,-5.55584 0.50507,-7.07107 8.58333,-3.61405 13.63706,-3.03045 16.16245,-6.06091 2.52538,-3.03046 15.15228,-15.65737 19.19289,-14.64721 4.04061,1.01015 17.1726,9.59645 20.20305,12.6269 3.03046,3.03046 7.57615,17.67768 -0.50507,19.69798 -8.08122,2.02031 -14.64721,-4.54569 -16.16244,-0.50508 -1.51523,4.04061 4.76144,16.93513 2.52538,15.65737 -0.88388,-0.50508 -6.62913,-1.13643 -4.60882,-0.12628 2.0203,1.01016 3.4724,4.9245 2.65165,5.68212 -3.87472,3.57669 -4.97969,3.07571 -3.21987,4.92449 1.35256,1.42092 13.7433,7.49882 8.90198,15.34169 -2.14268,3.4711 -9.27665,13.23718 -12.54999,18.90677 -1.31253,2.27337 -19.20844,29.65233 -26.33422,29.15941 -14.48538,-1.002 -15.67486,5.46742 -18.20025,13.04356 -2.52538,7.57615 -0.82824,15.22758 -1.3447,22.72844 -0.58158,8.44662 -0.75107,20.70231 2.72338,26.15804 1.77144,2.78161 19.25155,6.50998 15.71601,10.04551 -3.53554,3.53553 -4.53517,5.14005 -2.44747,6.22285 5.67134,2.94147 10.17417,-0.07 12.25313,4.87219 3.09652,7.36119 4.9002,12.26977 4.39512,15.30023 -0.50507,3.03046 -8.01732,4.93346 -3.47163,9.98422 4.54569,5.05076 -0.92426,4.02156 -2.41334,4.3925 -1.48908,0.37094 -7.76609,-1.81722 -10.94185,1.25263 -5.67254,5.48336 -2.95169,17.15859 -6.9923,17.66366 -4.04061,0.50508 -12.6444,0.60574 -14.15963,3.13113 -1.51523,2.52538 -1.012,3.22348 -10.5926,-0.68365 -2.38471,-0.97253 13.21602,-7.15773 12.40107,-8.88217 -0.96513,-2.0422 0.14157,-13.262 -11.25961,-22.55511 -2.50682,-2.04331 -1.72182,-15.94798 -5.76243,-16.45306 -4.04061,-0.50507 -5.40849,-2.84219 -8.83226,-1.23948 -1.66107,0.77757 -5.80134,3.3248 -10.6031,5.08489 -2.18355,0.80038 -13.42616,-3.34033 -16.45662,0.70028 -3.03046,4.04062 -9.3583,4.2752 -11.3786,8.82088 -2.02031,4.54569 -10.36676,3.79202 -11.37691,8.84278 -1.01015,5.05077 -11.05303,16.68153 -8.52765,23.7526 2.52538,7.07106 4.23001,8.9651 1.19955,9.97525 -3.03046,1.01015 -14.77348,1.51523 -21.4026,-4.41942 -9.57928,-8.57575 -12.12183,-22.22335 -22.72843,-25.75889 -10.60661,-3.53553 -4.37081,-8.79151 -13.63706,-6.56599 -14.45781,3.47241 -17.84816,10.52361 -20.07679,10.35407 -9.6093,-0.73103 -17.80393,-1.76777 -17.80393,-7.82869 0,-6.06091 -0.50508,-8.58629 -6.06092,-8.08122 -5.55584,0.50508 -11.11168,-6.56599 -16.66752,-2.0203 -5.55583,4.54569 -18.56155,2.90419 -22.47589,2.65165 -3.91434,-0.25254 -10.85914,3.15673 -13.00571,1.51523 -2.14658,-1.6415 5.6821,-6.18719 0.12627,-6.9448 -5.55584,-0.75762 -10.2278,-2.27284 -11.11168,-1.51523 -0.88389,0.75761 -1.26269,3.53553 -5.42957,3.40927 -4.16688,-0.12627 -21.33947,-4.29315 -22.09709,-5.17704 -0.75761,-0.88388 -5.05076,-1.89403 -5.68211,-0.63134 -0.63134,1.26269 -6.06091,7.95495 -8.20749,8.33376 -2.14657,0.3788 -14.94104,-10.29157 -13.86961,-11.45229 1.07143,-1.16071 1.42857,-2.58928 -3.39286,-6.78571 -4.82143,-4.19643 -8.24388,-10.61449 -16.5145,-15.22331 -8.27063,-4.60882 -17.5514,-4.48255 -20.70813,-4.29315 -3.15673,0.18941 -4.41942,-3.97747 -3.97748,-5.11389 0.44195,-1.13642 1.20011,-3.76251 -1.2106,-5.28037 -2.41072,-1.51785 -7.32143,-3.30357 -6.875,-5.80357 0.44643,-2.5 4.2344,-4.6997 1.96155,-11.32882 -2.27284,-6.62913 -5.55583,-7.76555 -5.61897,-13.57393 -0.0631,-5.80837 -2.59258,-5.00796 -1.52115,-9.29368 1.07142,-4.28571 0.89285,-8.03571 -1.69643,-8.30357 -2.58929,-0.26786 -0.71429,-5.80357 -2.94643,-5.98214 -2.23214,-0.17857 -9.91072,-2.23214 -8.83929,-4.46429 1.07143,-2.23214 3.4375,-6.96428 0.40179,-9.41964 -3.03572,-2.45536 1.29464,-7.1875 -0.22322,-8.25893 -1.51785,-1.07143 -4.11563,-4.97478 -4.93638,-6.55314 -0.82075,-1.57836 -2.71478,-4.35628 -4.60882,-4.35628 -1.89403,0 -0.88388,-5.99779 0.50508,-6.9448 1.38896,-0.94702 5.51331,-14.53151 3.68298,-17.23506 -1.83033,-2.70355 0.0149,-5.7442 0.4839,-6.6298 z"
       id="path2996"
       inkscape:connector-curvature="0"
       sodipodi:nodetypes="zsssssssssssssssscssssssssssssssssssssssszssssssssssssssssssssssssssssssssssssssssssssssszz" />
  </g>
</svg>
